<!--?xml version="1.0" encoding="utf-8"?-->
<!-- Generator: Adobe Illustrator 25.2.3, SVG Export Plug-In . SVG Version: 6.00 Build 0)  -->
<svg version="1.1" id="_x33_" xmlns="http://www.w3.org/2000/svg" xmlns:xlink="http://www.w3.org/1999/xlink" x="0px" y="0px" viewBox="0 0 720 412.031" style="width: 720px;" xml:space="preserve">
<style type="text/css">
 .stblack{fill:#000000;}
</style>
<g id="svgID1">
	<path class="stblack" d="M299.55,103.092c-0.209-0.411-0.66-0.652-1.022-0.984c-0.314-0.389-0.827-0.6-1.303-0.908
		c-1.06-0.536-2.461-0.932-3.933-1.144c-4.414-0.502-9.266,0.307-13.812,0.991c-5.337,0.804-10.503,1.616-15.11,2.718
		c-4.454,1.09-8.352,2.491-11.847,3.396c-9.108,2.383-14.7,3.637-15.266,2.437c-0.516-1.092,3.333-4.279,10.675-8.286
		c3.488-1.891,7.819-3.797,12.828-5.819c3.24-1.308,6.741-2.772,10.622-3.933c3.268-0.971,6.795-1.68,10.56-2.319
		c3.606-0.595,7.459-1.188,11.768-0.917c2.38,0.197,4.878,0.561,7.537,1.621c0.648,0.207,1.324,0.568,1.987,0.9
		c0.672,0.312,1.319,0.696,1.934,1.183c1.245,0.925,2.52,1.798,3.5,3.099c0.525,0.62,1.036,1.227,1.495,1.835
		c0.357,0.657,0.705,1.296,1.043,1.918c0.735,1.262,1.091,2.459,1.415,3.613c0.166,0.573,0.335,1.141,0.466,1.685
		c0.068,0.526,0.135,1.038,0.201,1.537c0.093,0.986,0.279,1.992,0.22,2.831c-0.007,5.219-1.202,8.382-2.065,11.763
		c-0.982,3.126-1.88,6.392-3.672,10.603c-0.931,2.287-2.247,4.779-3.683,7.786c-1.687,3.605-3.367,7.088-5.204,10.364
		c-2.257,3.984-4.712,7.651-7.011,11.166c-2.553,3.95-4.971,7.683-7.418,11.043c-2.603,3.537-5.248,6.635-7.574,9.469
		c-1.83,2.223-3.409,4.326-4.998,6.082c-5.694,6.271-9.641,9.439-10.604,8.674c-0.85-0.674,0.984-4.004,4.199-9.761
		c1.889-3.384,4.057-7.737,6.915-12.511c2.408-4.031,5.404-8.318,8.263-13.185c2.222-3.76,4.199-7.946,6.515-12.13
		c2.442-4.393,5.189-8.856,7.487-13.682c1.704-3.623,2.51-6.67,3.407-9.119c1.081-3.018,1.816-5.337,2.446-7.565
		c0.305-1.114,0.504-2.191,0.772-3.33c0.176-1.114,0.338-2.287,0.419-3.534C301.843,108.026,301.225,104.824,299.55,103.092z" style="opacity: 1;"></path>
	<path class="stblack" d="M121.435,96.612c-0.769,0.337-1.576,0.775-2.414,1.099c-0.798,0.519-1.646,0.939-2.389,1.554
		c-2.165,1.8-3.818,4.151-5.559,6.247c-1.949,2.516-4.087,4.83-5.509,7.27c-1.453,2.322-2.257,4.629-3.267,6.522
		c-2.614,4.943-3.678,8.229-5.074,8.281c-1.145,0.071-2.566-3.234-2.143-8.883c0.182-2.666,0.952-5.721,2.052-9.119
		c0.708-2.199,1.505-4.594,2.696-6.99c0.535-0.991,1.131-1.98,1.749-2.983c0.683-0.979,1.381-1.977,2.091-2.993
		c1.42-1.923,2.89-3.992,4.86-5.831c1.005-1.053,2.367-1.909,3.598-2.838c1.365-0.836,2.795-1.658,4.342-2.366
		c3.206-1.377,6.133-2.137,8.648-2.066c0.937,0.025,1.808,0.086,2.622,0.167c0.811,0.128,1.567,0.398,2.288,0.605
		c0.719,0.226,1.408,0.445,2.065,0.689l1.81,0.957c0.572,0.303,1.149,0.605,1.745,0.92c0.522,0.374,1.06,0.757,1.626,1.163
		c0.548,0.413,1.191,0.819,1.736,1.323c0.527,0.519,1.087,1.07,1.689,1.663c0.676,0.635,1.216,1.397,1.809,2.218
		c0.599,0.819,1.272,1.69,1.874,2.654c0.772,1.136,1.562,2.245,2.199,3.377c0.696,1.121,1.325,2.245,1.828,3.389
		c1.317,2.777,2.104,5.58,2.922,8.207c0.442,1.473,0.875,2.905,1.244,4.304c0.277,1.06,0.265,1.232,0.267,1.626l-0.026,0.384
		c0.173,0.16,0.44,0.275,0.733,0.435c0.197,0.076,0.211,0.145,0.596,0.226c0.499,0.081,0.985,0.16,1.461,0.236
		c1.779,0.273,3.413,0.379,4.87,0.676c5.213,1.067,8.243,2.277,8.2,3.51c-0.037,1.08-2.422,1.64-6.574,2.344
		c-1.22,0.221-2.594,0.47-4.105,0.743c-0.755,0.118-1.544,0.236-2.365,0.364c-0.411,0.047-0.829,0.096-1.255,0.148l-0.645,0.061
		l-1.091,0.037c-2.08,0.049-4.353,0.066-7.043-0.032c-0.336-1.431-0.705-3.005-1.094-4.67c-0.395-1.397-0.924-3.352-1.211-3.999
		c-0.907-2.464-2.263-4.916-3.462-7.452c-1.245-2.664-2.324-5.563-4.045-7.996c-1.295-1.827-2.719-2.782-3.696-3.603
		c-0.577-0.612-1.151-0.868-1.631-1.252c-0.477-0.421-0.942-0.625-1.388-0.829c-0.878-0.551-1.749-0.694-2.86-0.839
		c-0.627,0.111-1.288-0.047-2.068,0.334c-0.386,0.116-0.797,0.241-1.238,0.376C122.454,96.211,121.973,96.425,121.435,96.612z" style="opacity: 1;"></path>
	<path class="stblack" d="M64.346,169.905c0.905-1.913,2.146-3.62,3.06-5.413c1.318-2.592,2.474-5.167,3.835-7.445
		c1.641-2.632,3.689-4.808,5.244-6.908c1.606-1.99,2.861-3.901,4.251-5.339c3.807-3.665,6.678-5.229,7.683-4.422
		c0.952,0.75,0.437,3.519-1.155,7.435c-0.668,1.94-1.708,4.08-2.814,6.525c-0.656,1.631-1.22,3.458-2.028,5.261
		c-0.701,1.5-1.524,3.042-2.252,4.707c-0.658,1.608-1.34,3.273-2.04,4.985c-0.812,1.869-1.842,3.704-2.761,5.642
		c-0.897,1.99-1.443,3.628-2.08,4.929c-0.953,1.926-1.835,3.251-2.561,4.722c-0.695,1.399-1.261,2.919-2.16,4.99
		c-0.472,1.121-1.166,2.354-1.774,3.913c-0.736,1.852-1.266,3.743-1.962,5.514c-0.862,2.154-1.877,4.176-2.686,6.168
		c-0.928,2.223-1.647,4.39-2.505,6.353c-0.924,2.068-1.955,3.928-2.797,5.642c-0.667,1.345-1.106,2.629-1.713,3.716
		c-2.142,3.898-3.902,6.043-5.09,5.711c-1.043-0.29-1.117-2.386-0.91-5.957c0.13-2.095,0.119-4.781,0.691-7.723
		c0.461-2.486,1.467-5.103,2.24-8.042c0.634-2.26,0.977-4.771,1.792-7.24c0.871-2.587,2.113-5.162,3.201-7.892
		c0.769-2.059,1.011-3.834,1.517-5.221c1.286-3.394,2.199-5.182,3.422-8.195C62.659,174.696,63.142,172.59,64.346,169.905z" style="opacity: 1;"></path>
	<path class="stblack" d="M16.562,294.951c1.097-3.714,2.663-7.201,3.924-10.679c1.722-5.047,3.362-9.929,5.249-14.412
		c1.048-2.622,2.391-5.047,3.6-7.388c1.26-2.324,2.357-4.575,3.595-6.658c2.31-4.046,4.009-7.848,6.216-10.797
		c1.381-1.938,2.619-3.662,3.797-5.108c1.267-1.407,2.39-2.568,3.352-3.47c1.926-1.803,3.207-2.565,3.741-2.181
		c0.492,0.357,0.348,1.682-0.328,3.778c-0.655,2.115-1.98,4.882-3.317,8.593c-0.667,1.736-1.503,3.569-2.361,5.578
		c-0.794,2.046-1.647,4.245-2.554,6.579c-1.234,2.976-2.09,6.422-3.376,9.867c-1.103,2.89-2.227,5.954-3.32,9.156
		c-0.495,1.54-0.998,3.106-1.509,4.697c-0.454,1.616-0.921,3.254-1.445,4.897c-1.169,3.608-2.555,7.268-3.688,11.114
		c-1.187,3.891-2.014,6.972-2.757,9.567c-1.145,3.837-2.242,6.552-3.141,9.454c-0.822,2.782-1.492,5.721-2.583,9.771
		c-0.602,2.174-1.332,4.67-2.043,7.695c-0.853,3.601-1.478,7.174-2.208,10.625c-0.949,4.196-2.018,8.224-2.816,12.12
		c-0.967,4.351-1.618,8.519-2.418,12.383c-0.909,4.08-1.751,7.853-2.511,11.264c-0.61,2.688-0.865,5.172-1.358,7.376
		c-0.908,3.95-1.586,7.078-2.272,9.225c-0.689,2.145-1.354,3.303-1.971,3.273c-1.056-0.042-1.535-3.746-1.826-10.251
		c-0.108-3.807-0.451-8.63-0.033-14.127c0.247-4.661,1.249-9.742,1.91-15.315c0.645-4.279,0.932-8.893,1.806-13.603
		c0.937-4.943,2.262-10.034,3.522-15.298c0.87-3.952,1.183-7.172,1.829-9.808c1.501-6.5,2.624-10.02,4.177-15.785
		C14.234,303.957,14.944,300.106,16.562,294.951z" style="opacity: 1;"></path>
	<path class="stblack" d="M291.575,293.399c-0.964-3.765-1.704-7.494-2.702-11.055c-1.556-5.096-3.438-9.835-5.075-14.321
		c-0.977-2.6-1.791-5.177-2.742-7.553c-0.856-2.442-1.826-4.685-2.825-6.793c-0.89-2.095-2.104-3.802-3.073-5.563
		c-1.027-1.709-2.155-3.148-3.029-4.665c-1.288-1.798-2.431-3.495-3.54-4.86c-1.17-1.276-2.076-2.59-2.95-3.478
		c-1.747-1.776-2.657-3.099-2.364-3.687c0.35-0.979,5.911-0.157,12.745,5.728c1.715,1.303,3.111,3.082,4.814,4.911
		c1.569,1.899,3.145,4.026,4.742,6.321c0.995,1.505,2.029,3.064,3.097,4.68c0.97,1.653,1.963,3.374,2.932,5.172
		c1.497,3.064,2.933,6.353,4.27,9.774c1.384,3.249,2.756,6.616,3.985,10.143c1.264,3.903,2.353,7.983,3.425,12.14
		c1.173,4.206,2.018,7.506,2.676,10.32c0.833,4.191,1.252,7.275,1.742,10.462c0.548,3.028,1.118,6.173,1.91,10.551
		c0.416,2.356,0.637,5.106,1.187,8.345c0.608,3.864,1.37,7.627,1.827,11.328c0.593,4.508,0.884,8.901,1.279,13.079
		c0.435,4.678,0.94,9.105,1.163,13.264c0.237,4.397,0.19,8.485,0.22,12.164c0.033,2.892,0.174,5.529,0.1,7.909
		c-0.288,8.505-1.202,13.51-2.435,13.556c-1.084,0.042-1.87-3.706-3.154-10.234c-0.751-3.834-1.921-8.605-2.784-14.164
		c-0.727-4.688-1.157-9.958-1.989-15.62c-0.65-4.375-1.7-8.957-2.42-13.78c-0.777-5.064-1.232-10.403-2.113-15.841
		c-0.705-4.06-1.648-7.204-2.21-9.899c-1.342-6.628-1.89-10.33-3.286-16.2C294.241,302.364,292.973,298.625,291.575,293.399z" style="opacity: 1;"></path>
	<path class="stblack" d="M290.325,189.809c0.413-1.746,1.184-3.372,1.631-5.034c0.684-2.398,0.747-4.764,1.363-6.926
		c0.653-2.516,1.441-4.823,2.058-6.982c0.451-2.073,0.469-3.957,0.945-5.6c0.948-4.223,1.926-6.997,3.273-7.186
		c1.202-0.162,2.576,1.98,3.88,6.094c0.435,1.928,0.628,4.265,0.919,6.945c0.062,1.702,0.26,3.564,0.232,5.526
		c0.021,1.665-0.372,3.313-0.556,5.074c-0.212,1.67-0.174,3.478-0.559,5.214c-0.381,1.931-0.975,3.874-1.453,5.883
		c-0.558,2.009-0.857,3.628-1.282,4.948c-0.606,1.965-1.371,3.278-1.95,4.715c-0.567,1.365-0.924,2.863-1.685,4.847
		c-0.412,1.067-1.038,2.241-1.561,3.721c-0.604,1.773-1.135,3.527-1.808,5.177c-0.811,2.017-1.842,3.864-2.713,5.669
		c-0.95,2.034-1.781,3.989-2.75,5.73c-1.006,1.849-2.217,3.431-3.178,4.911c-0.759,1.163-1.36,2.272-2.062,3.185
		c-2.543,3.251-4.628,4.835-5.719,4.257c-0.958-0.507-0.702-2.368-0.11-5.524c0.339-1.857,0.597-4.242,1.331-6.793
		c0.647-2.14,1.692-4.383,2.571-6.916c0.633-1.975,1.028-4.176,1.785-6.321c0.748-2.27,2.002-4.471,2.831-6.904
		c0.607-1.825,0.73-3.389,1.11-4.616c0.826-3.035,1.601-4.621,2.307-7.339C289.536,194.096,289.648,192.234,290.325,189.809z" style="opacity: 1;"></path>
	<path class="stblack" d="M284.296,181.395c-0.679,0.696-1.63,1.099-2.314,1.729c-0.992,0.905-1.729,1.982-2.71,2.727
		c-1.138,0.871-2.516,1.38-3.588,2.014c-1.038,0.612-1.762,1.365-2.678,1.741c-2.387,0.981-4.298,1.112-5.26,0.212
		c-0.886-0.829-0.949-2.521-0.287-4.71c0.315-1.035,0.918-2.063,1.554-3.273c0.41-0.785,0.753-1.724,1.287-2.558
		c0.448-0.701,1.072-1.289,1.61-2.004c0.514-0.686,0.935-1.503,1.521-2.194c0.644-0.762,1.471-1.392,2.204-2.142
		c0.746-0.76,1.226-1.463,1.762-1.926c0.796-0.689,1.549-1.018,2.192-1.498c0.612-0.457,1.118-1.065,1.941-1.795
		c0.442-0.391,1.064-0.73,1.639-1.301c0.689-0.681,1.255-1.456,1.943-2.073c0.838-0.753,1.809-1.321,2.631-1.965
		c0.925-0.721,1.711-1.5,2.592-2.076c0.935-0.605,1.955-0.999,2.81-1.424c0.668-0.337,1.187-0.748,1.79-0.964
		c2.155-0.78,3.829-0.772,4.64,0.157c0.712,0.814,0.443,1.901-0.178,3.618c-0.366,1.008-0.689,2.405-1.437,3.618
		c-0.629,1.03-1.637,1.852-2.507,2.981c-0.676,0.866-1.161,2.022-1.963,2.919c-0.841,0.947-2.001,1.653-2.971,2.609
		c-0.698,0.745-0.984,1.601-1.432,2.118c-1.103,1.267-1.902,1.783-2.898,2.909C285.649,179.452,285.245,180.429,284.296,181.395z" style="opacity: 1;"></path>
	<path class="stblack" d="M199.49,95.704c-1.551,1.549-3.306,3.015-4.729,4.727c-2.057,2.477-3.672,5.189-5.457,7.595
		c-2.077,2.804-4.304,5.31-6.066,7.764c-1.702,2.373-2.935,4.685-4.329,6.525c-3.624,4.796-6.207,7.521-7.419,6.997
		c-1.113-0.48-1.007-3.8,0.442-8.982c0.689-2.457,1.841-5.246,3.172-8.421c0.854-2.054,1.714-4.321,2.877-6.599
		c0.984-1.911,2.232-3.79,3.462-5.802c1.181-1.923,2.327-3.994,3.799-5.964c1.604-2.174,3.539-4.235,5.631-6.343
		c2.135-2.132,3.892-3.856,5.733-5.061c2.702-1.79,5.131-2.681,7.835-3.377c2.592-0.635,5.849-0.986,9.543,0.025
		c1.968,0.595,4.018,1.643,6.177,2.978c2.559,1.601,4.755,3.34,6.574,5.248c2.216,2.334,3.874,4.843,5.429,7.184
		c1.737,2.622,3.317,5.098,4.528,7.545c1.277,2.587,2.143,5.111,2.965,7.346c0.644,1.756,1.325,3.313,1.734,4.798
		c1.447,5.31,1.48,8.679,0.326,9.1c-1.018,0.379-2.425-1.621-4.858-5.034c-1.434-2.004-3.433-4.38-5.356-7.258
		c-1.629-2.42-3.137-5.273-5.187-8.047c-1.59-2.137-3.603-4.102-5.475-6.151c-1.955-2.152-3.903-4.405-6.204-5.89
		c-1.756-1.04-3.21-1.082-4.183-1.171c-1.27-0.125-1.95-0.049-2.899,0.152c-0.937,0.303-1.936,0.612-3.169,1.485
		C203.051,91.981,201.642,93.528,199.49,95.704z" style="opacity: 1;"></path>
	<path class="stblack" d="M483.945,49.777c-0.823,8.869-1.306,17.695-0.966,26.289c0.503,12.42,2.322,24.262,4.405,35.329
		c2.414,12.892,5.516,24.781,9.394,35.179c3.764,10.054,8.347,18.566,12.54,25.76c11.003,18.81,21.298,27.447,20.208,28.667
		c-0.379,0.457-2.897-0.927-7.218-4.092c-4.122-3.35-10-8.596-16.106-16.387c-5.752-7.393-11.702-16.999-16.941-28.549
		c-3.456-7.44-6.689-15.674-9.37-24.624c-2.276-7.526-3.97-15.583-5.427-23.982c-1.391-8.035-2.653-16.409-3.137-25.101
		c-0.549-9.567-0.405-19.466,0.551-29.597c0.98-10.283,2.441-18.409,4.611-25.226c1.68-5.052,3.52-9.397,6.285-13.332
		c0.686-0.981,1.541-1.928,2.302-2.85c0.741-0.927,1.896-1.773,2.84-2.607c2.059-1.569,4.35-2.661,6.662-3.411
		c4.432-1.363,8.911-1.498,13.518-0.922c4.615,0.593,9.411,1.963,14.488,4.311c5.476,2.506,11.249,6.185,17.509,11.183
		c7.479,5.944,13.969,12.639,19.461,19.732c6.67,8.682,11.894,17.85,16.281,26.825c4.881,10.064,8.767,19.943,11.478,29.417
		c2.844,10.015,4.795,19.439,6.001,28c0.589,3.347,0.979,6.574,1.365,9.648c0.411,3.069,0.756,5.991,0.895,8.77
		c1.312,19.865-0.069,31.439-1.152,31.441c-0.542,0.01-1.048-2.194-1.591-6.306c-0.467-4.117-1.248-10.128-2.277-17.723
		c-1.41-8.91-3.583-19.956-6.74-32.513c-2.64-10.59-5.902-22.363-11.109-34.407c-3.987-9.321-9.255-18.674-15.437-27.836
		c-6.461-9.631-14.087-19.206-23.698-26.911c-7.226-5.691-13.79-8.8-19.258-10.644c-6.716-2.336-12.145-2.597-16.141-1.397
		c-2.066,0.62-3.361,1.594-4.779,3.234c-1.48,1.623-2.754,4.22-3.998,7.078C486.866,28.683,485.102,37.431,483.945,49.777z" style="opacity: 1;"></path>
	<path class="stblack" d="M393.033,100.54c1.371,6.08,2.457,12.132,4.219,17.843c2.476,8.271,5.583,15.964,8.591,23.175
		c3.498,8.396,6.959,16.18,10.747,22.892c3.62,6.522,7.633,11.884,11.022,16.572c4.364,6.178,8.457,10.605,11.12,13.876
		c2.833,3.064,4.241,5.017,3.849,5.548c-0.562,0.863-8.154-2.462-18.085-12.12c-4.731-4.535-9.659-10.63-14.745-17.855
		c-0.818-1.176-1.652-2.371-2.5-3.588c-0.802-1.247-1.618-2.514-2.449-3.802c-1.701-2.56-3.242-5.322-4.831-8.168
		c-1.334-2.395-2.486-4.948-3.746-7.516c-1.155-2.614-2.334-5.283-3.535-8.003c-2.18-5.246-4.482-10.679-6.325-16.449
		c-2.128-6.323-3.635-13.04-5.183-19.887c-1.418-6.99-2.498-12.506-2.973-17.24c-0.817-7.007-0.707-12.177-0.756-17.536
		c0.163-5.13,0.027-10.48,1.149-17.959c0.222-2.009,0.799-4.164,1.258-6.498c0.241-1.171,0.649-2.376,0.982-3.637
		c0.357-1.262,0.673-2.58,1.198-3.933c2.138-6.456,5.233-12.882,10.269-17.936l2.377-2.201c0.374-0.384,0.856-0.662,1.297-0.974
		l1.747-1.173l2.122-1.422l0.516-0.347l0.547-0.192l1.223,0.251c1.375,0.283,2.743,0.566,4.104,0.846
		c1.926,0.401,3.832,0.797,5.567,1.513c1.764,0.647,3.546,1.222,5.23,1.911c7.484,3.227,13.864,7.275,19.469,11.417
		c5.801,4.53,10.668,9.213,14.879,13.554c3.313,3.411,6.325,6.532,8.798,9.533c8.821,10.748,12.635,18.008,11.658,18.716
		c-0.894,0.666-4.961-3.952-12.712-11.291c-4.554-4.302-10.508-9.39-17.457-15.017c-5.873-4.705-12.464-9.948-20.3-14.11
		c-0.755-0.403-1.515-0.809-2.281-1.217c-0.791-0.33-1.589-0.662-2.391-0.996c-1.62-0.595-3.2-1.458-4.895-1.857
		c-1.679-0.457-3.36-1.001-5.061-1.436c-1.197-0.192-2.407-0.384-3.63-0.576l-0.144,0.079l-0.028,0.032
		c-0.055,0.042,0.094-0.054-0.16,0.118c-0.341,0.248-0.716,0.445-1.04,0.728l-0.942,0.895c-1.347,1.087-2.436,2.55-3.614,3.957
		c-2.09,3.074-4.03,6.527-5.245,10.489c-1.85,5.903-2.244,10.962-2.633,15.192c-0.296,2.595-0.313,4.958-0.491,7.122
		c-0.032,2.189-0.063,4.215-0.091,6.205c0.059,1.999,0.118,3.967,0.18,6.028c0.169,2.063,0.346,4.223,0.541,6.611
		C390.102,85.862,391.219,92.033,393.033,100.54z" style="opacity: 1;"></path>
	<path class="stblack" d="M652.721,200.227c-0.052-3.382-0.519-6.343-1.694-9.117c-1.823-3.923-5.035-7.132-8.507-10.005l-1.434-1.308
		c-0.522-0.403-1.041-0.804-1.554-1.203c-1.021-0.819-2.024-1.623-3.005-2.41c-2.104-1.463-4.124-2.907-6.115-4.191
		c-3.983-2.324-7.709-4.174-10.926-5.915c-4.103-2.418-7.479-4.252-9.689-5.787c-2.22-1.52-3.326-2.646-3.099-3.264
		c0.404-1.097,5.402-0.62,13.581,1.645c1.931,0.568,4.028,1.267,6.287,2.049c2.24,0.851,4.621,1.874,7.18,2.902
		c1.664,0.627,3.339,1.513,5.112,2.302c1.771,0.794,3.585,1.677,5.374,2.828c3.058,1.766,6.05,4.127,9.074,6.817
		c1.376,1.424,2.966,2.602,4.236,4.338c0.66,0.829,1.324,1.665,1.994,2.506c0.624,0.885,1.136,1.894,1.687,2.865
		c2.317,4.336,3.536,9.572,3.605,14.42c0.138,4.926-0.131,8.586-0.563,11.515c-0.652,4.41-1.4,7.236-2.2,10.684
		c-0.334,1.616-0.733,3.175-1.161,4.914c-0.413,1.749-0.882,3.66-1.535,5.814c-0.663,2.349-1.627,4.975-2.606,8.141
		c-1.128,3.797-2.2,7.499-3.401,11.06c-1.494,4.326-3.177,8.416-4.685,12.356c-1.691,4.405-3.184,8.625-4.812,12.477
		c-1.706,4.078-3.542,7.747-5.097,11.099c-1.227,2.634-2.221,5.093-3.312,7.218c-3.893,7.607-6.785,11.805-7.93,11.345
		c-1.005-0.403-0.172-4.179,1.451-10.684c0.952-3.827,1.958-8.672,3.599-14.107c1.383-4.584,3.331-9.552,5.078-15.049
		c1.363-4.247,2.462-8.859,3.962-13.534c1.568-4.914,3.558-9.929,5.158-15.211c1.195-3.965,1.643-7.196,2.323-9.845
		c0.739-3.234,1.458-5.775,1.891-8.116c0.23-1.195,0.489-2.304,0.698-3.591c0.188-1.301,0.385-2.664,0.605-4.169
		C652.64,208.842,652.874,204.919,652.721,200.227z" style="opacity: 1;"></path>
	<path class="stblack" d="M442.018,281.788c-1.178-4.449-1.806-8.923-2.669-13.212c-1.224-6.203-2.525-12.152-3.125-17.892
		c-0.373-3.332-0.551-6.579-0.591-9.705c-0.131-3.111-0.001-6.121-0.005-8.96c0.083-5.494,0.101-10.46,0.799-14.732
		c1.74-11.166,5.059-17.206,6.173-16.849c0.588,0.155,0.893,1.645,0.951,4.186c-0.053,2.514,0.095,6.183,0.108,10.706
		c0.14,2.169,0.191,4.53,0.256,7.073c0.219,2.563,0.329,5.3,0.642,8.207c0.25,1.877,0.509,3.827,0.777,5.841
		c0.321,2.007,0.653,4.08,0.995,6.212c0.565,3.586,1.004,7.368,1.777,11.254c0.695,3.724,1.702,7.526,2.567,11.463
		c0.999,4.326,1.865,8.827,3.066,13.347c0.556,2.196,1.154,4.137,1.673,5.89c0.759,2.437,1.437,4.611,2.05,6.574
		c-0.16,0.472-0.257,0.755-0.352,1.035c-0.355,1.023-0.697,2.009-1.028,2.969c-0.191,0.519-0.377,1.023-0.557,1.513
		c-0.371,0.979-0.721,1.901-1.058,2.791c-0.67,1.786-1.29,3.436-1.923,5.12c-1.141,3.237-2.152,6.66-3.661,11.39
		c-0.826,2.541-1.892,5.428-2.947,8.947c-1.181,4.215-2.339,8.342-3.466,12.359c-1.484,4.865-2.919,9.565-4.292,14.06
		c-1.432,5.054-2.684,9.884-3.902,14.368c-1.378,4.722-2.653,9.092-3.805,13.037c-0.841,3.116-1.382,6.003-2.116,8.559
		c-2.408,9.129-3.712,14.55-5.017,14.503c-0.541-0.03-0.875-1.129-1.09-3.197c-0.107-1.035-0.186-2.309-0.245-3.815
		c0.036-1.49,0.078-3.2,0.123-5.113c0.041-2.265,0.179-4.791,0.381-7.57c0.166-2.791,0.487-5.807,0.993-9.011
		c0.393-2.715,0.98-5.548,1.648-8.502c0.663-2.954,1.357-6.045,2.079-9.262c1.069-4.98,2.011-10.3,3.408-15.745
		c1.489-5.716,3.487-11.554,5.294-17.634c1.32-4.56,2.024-8.271,2.919-11.323c2.196-7.499,3.701-11.549,5.794-18.229
		c0.116-0.379,0.235-0.767,0.379-1.235l-0.011-0.118l-0.071-0.052l-0.038-0.025l-0.018-0.012l-0.096-0.261
		c-0.268-0.782-0.562-1.638-0.878-2.56C443.308,286.331,442.632,284.203,442.018,281.788z" style="opacity: 1;"></path>
	<path class="stblack" d="M637.031,326.161c-0.889-1.094-1.769-2.157-2.593-3.269c-0.887-1.033-1.743-2.093-2.691-3.02
		c-2.739-2.698-5.803-4.646-8.596-6.478c-3.253-2.13-6.411-4.011-9.569-5.02c-3.053-0.969-5.932-1.107-8.451-1.301
		c-6.613-0.428-11.015,0.676-11.6-0.627c-0.257-0.548,0.347-1.458,1.817-2.698c0.746-0.59,1.742-1.183,2.944-1.857
		c1.242-0.546,2.684-1.247,4.405-1.682c3.234-0.939,7.367-1.291,11.981-0.785c2.995,0.28,6.192,0.93,9.424,2.078
		c2.658,1.067,5.305,2.494,7.875,4.147c2.519,1.515,5.015,3.229,7.341,5.251c2.558,2.233,4.812,4.865,7.048,7.548
		c2.258,2.735,3.959,4.909,5.261,6.845c1.839,2.919,2.888,5.192,4.052,7.494c1.112,2.189,2.404,4.393,3.871,7.604
		c0.803,1.722,1.549,3.778,2.547,6.173c1.262,2.828,2.433,5.612,3.431,8.379c0.564,1.699,1.069,3.387,1.549,5.044
		c0.434,1.663,0.859,3.296,1.275,4.894c0.907,3.566,1.894,6.918,2.446,10.128c0.652,3.382,0.895,6.572,1.217,9.42
		c0.287,2.233,0.547,4.27,0.653,6.117c0.291,6.623-0.329,10.556-1.517,10.725c-1.079,0.152-2.144-2.646-3.79-7.494
		c-1.033-2.836-2.446-6.338-3.747-10.428c-0.483-1.736-0.995-3.574-1.531-5.502c-0.498-1.933-1.04-3.952-1.739-6.006
		c-1.019-3.2-2.54-6.431-3.781-9.887c-1.333-3.618-2.425-7.509-4.068-11.303c-1.217-2.85-2.681-4.845-3.6-6.68
		c-2.417-4.407-3.557-6.96-6.07-10.634C641.493,331.331,639.504,329.206,637.031,326.161z" style="opacity: 1;"></path>
	<path class="stblack" d="M236.461,330.996c-0.81-2.469-1.296-4.995-2.045-7.361c-1.166-3.382-2.463-6.569-3.471-9.653
		c-1.277-3.542-2.074-7.024-3.125-10.044c-1.057-2.902-2.205-5.428-2.923-7.752c-2.128-5.9-3.034-9.702-2.144-10.207
		c0.812-0.462,3.121,1.928,6.417,6.513c1.531,2.186,2.959,5.002,4.741,8.131c1.187,2.017,2.301,4.24,3.459,6.621
		c0.937,2.017,1.829,4.169,2.691,6.414c0.862,2.137,1.865,4.314,2.742,6.606c0.935,2.533,1.65,5.219,2.54,7.912
		c0.919,2.732,1.632,4.875,2.137,6.714c0.73,2.732,1.124,4.759,1.59,6.847c0.446,1.992,1.051,4.026,1.772,6.889
		c0.405,1.535,0.67,3.35,1.198,5.465c0.616,2.526,1.375,4.963,1.872,7.391c0.619,2.959,1.11,5.841,1.578,8.593
		c0.549,3.074,1.186,5.969,1.553,8.716c0.419,2.9,0.597,5.617,0.82,8.059c0.19,1.913,0.44,3.655,0.514,5.239
		c0.261,5.669-0.137,9.058-1.079,9.183c-0.825,0.108-1.658-2.309-3-6.532c-0.803-2.479-1.95-5.548-2.914-9.164
		c-0.812-3.05-1.407-6.515-2.335-10.204c-0.795-2.833-1.638-5.834-2.516-8.965c-0.807-3.31-1.385-6.832-2.287-10.386
		c-0.673-2.661-1.511-4.685-2.039-6.441c-1.262-4.329-1.729-6.788-2.964-10.622C238.526,336.904,237.659,334.425,236.461,330.996z" style="opacity: 1;"></path>
	<path class="stblack" d="M608.301,379.41c-0.182-0.817-0.066-1.685-0.198-2.479c-0.223-1.141-0.681-2.172-0.807-3.229
		c-0.14-1.232-0.046-2.462-0.095-3.544c-0.049-1.045-0.323-1.918-0.302-2.762c0.085-2.213,0.607-3.743,1.556-4.102
		c0.875-0.327,2.104,0.359,3.468,1.869c0.65,0.716,1.202,1.655,1.822,2.732c0.411,0.694,0.956,1.414,1.36,2.233
		c0.354,0.686,0.496,1.473,0.801,2.245c0.282,0.74,0.689,1.481,0.947,2.287c0.253,0.895,0.351,1.854,0.564,2.809
		c0.227,0.964,0.473,1.714,0.549,2.371c0.115,0.976,0.012,1.714,0.054,2.457c0.015,0.711,0.175,1.429,0.273,2.447
		c0.057,0.548-0.01,1.193,0.063,1.948c0.09,0.895,0.326,1.758,0.354,2.622c0.027,1.058-0.075,2.078-0.132,3.055
		c-0.055,1.092,0.006,2.122-0.151,3.091c-0.14,1.021-0.495,1.963-0.729,2.804c-0.183,0.662-0.272,1.274-0.491,1.808
		c-0.824,1.913-1.877,2.939-2.811,2.762c-0.818-0.15-1.165-1.011-1.695-2.469c-0.309-0.853-0.861-1.913-1.125-3.104
		c-0.208-1.001-0.148-2.122-0.339-3.33c-0.159-0.937-0.56-1.906-0.716-2.932c-0.132-1.077-0.012-2.231-0.143-3.401
		c-0.108-0.873-0.532-1.52-0.652-2.098c-0.287-1.417-0.255-2.231-0.568-3.495C608.99,381.323,608.573,380.546,608.301,379.41z" style="opacity: 1;"></path>
	<path class="stblack" d="M688.548,171.233c-0.749,0.794-1.652,1.414-2.392,2.15c-1.053,1.072-1.936,2.218-2.94,3.148
		c-1.15,1.092-2.426,1.936-3.462,2.809c-0.992,0.853-1.759,1.729-2.603,2.336c-2.162,1.601-3.757,2.332-4.365,1.842
		c-0.558-0.45-0.255-1.931,0.765-4.102c0.49-1.023,1.239-2.11,2.043-3.384c0.52-0.826,1.042-1.744,1.687-2.639
		c0.546-0.75,1.207-1.456,1.84-2.233c0.602-0.748,1.159-1.584,1.824-2.356c0.739-0.846,1.596-1.626,2.406-2.484
		c0.819-0.876,1.414-1.604,1.987-2.157c0.852-0.814,1.569-1.311,2.244-1.896c0.642-0.558,1.23-1.22,2.116-2.071
		c0.475-0.462,1.099-0.915,1.739-1.559c0.764-0.767,1.444-1.589,2.196-2.295c0.918-0.863,1.887-1.616,2.765-2.381
		c0.982-0.858,1.855-1.734,2.764-2.452c0.957-0.765,1.941-1.37,2.787-1.96c0.663-0.465,1.216-0.949,1.792-1.296
		c2.064-1.24,3.519-1.699,4.015-1.166c0.436,0.467-0.074,1.458-1.062,3.084c-0.579,0.954-1.226,2.228-2.197,3.47
		c-0.82,1.05-1.915,2.034-2.968,3.234c-0.812,0.932-1.543,2.044-2.47,3.04c-0.978,1.043-2.165,1.965-3.247,3.057
		c-0.797,0.829-1.267,1.643-1.782,2.216c-1.27,1.399-2.096,2.056-3.226,3.31C690.196,169.179,689.587,170.124,688.548,171.233z" style="opacity: 1;"></path>
	<path class="stblack" d="M695.69,184.528c-0.919,0.598-1.946,0.989-2.842,1.532c-1.285,0.792-2.423,1.699-3.625,2.363
		c-1.388,0.787-2.837,1.299-4.06,1.894c-1.177,0.585-2.144,1.244-3.115,1.626c-2.51,1.011-4.241,1.311-4.7,0.681
		c-0.422-0.58,0.251-1.938,1.785-3.773c0.73-0.866,1.723-1.731,2.816-2.764c0.706-0.669,1.432-1.434,2.275-2.142
		c0.711-0.593,1.522-1.114,2.32-1.719c0.762-0.58,1.501-1.257,2.332-1.849c0.915-0.644,1.93-1.2,2.918-1.842
		c1.001-0.657,1.748-1.23,2.433-1.631c1.017-0.595,1.83-0.908,2.621-1.323c0.753-0.398,1.477-0.905,2.535-1.53
		c0.568-0.337,1.277-0.639,2.047-1.119c0.919-0.573,1.768-1.217,2.66-1.736c1.088-0.635,2.201-1.146,3.228-1.695
		c1.149-0.617,2.196-1.274,3.242-1.776c1.104-0.531,2.197-0.905,3.152-1.294c0.75-0.305,1.396-0.657,2.035-0.868
		c2.286-0.757,3.806-0.893,4.175-0.263c0.324,0.551-0.392,1.409-1.715,2.779c-0.777,0.809-1.691,1.909-2.917,2.907
		c-1.035,0.846-2.325,1.564-3.624,2.501c-1.003,0.726-1.968,1.65-3.099,2.413c-1.191,0.797-2.561,1.431-3.866,2.248
		c-0.968,0.63-1.615,1.316-2.25,1.754c-1.564,1.075-2.52,1.527-3.918,2.486C697.78,182.91,696.969,183.692,695.69,184.528z" style="opacity: 1;"></path>
	<path class="stblack" d="M695.228,199.108c-0.719,0.236-1.499,0.243-2.196,0.438c-1.004,0.285-1.913,0.726-2.844,0.925
		c-1.079,0.239-2.176,0.212-3.119,0.337c-0.91,0.125-1.673,0.391-2.415,0.406c-1.92,0.052-3.218-0.275-3.502-1.001
		c-0.261-0.667,0.352-1.66,1.649-2.796c0.616-0.536,1.423-0.984,2.32-1.549c0.58-0.369,1.182-0.817,1.866-1.176
		c0.576-0.298,1.218-0.499,1.857-0.782c0.612-0.271,1.216-0.639,1.878-0.898c0.728-0.283,1.52-0.445,2.3-0.701
		c0.792-0.258,1.389-0.536,1.925-0.674c0.796-0.199,1.416-0.212,2.029-0.327c0.584-0.111,1.158-0.332,1.985-0.551
		c0.445-0.118,0.985-0.157,1.59-0.339c0.722-0.216,1.4-0.524,2.096-0.701c0.847-0.219,1.702-0.315,2.498-0.477
		c0.889-0.182,1.711-0.435,2.513-0.546c0.849-0.121,1.67-0.098,2.396-0.138c0.569-0.032,1.068-0.14,1.548-0.121
		c1.715,0.064,2.81,0.448,2.999,1.151c0.166,0.617-0.44,1.173-1.534,1.995c-0.643,0.482-1.415,1.19-2.398,1.702
		c-0.829,0.428-1.827,0.657-2.854,1.085c-0.794,0.33-1.581,0.858-2.471,1.178c-0.936,0.33-1.981,0.453-3.002,0.762
		c-0.759,0.251-1.292,0.664-1.793,0.851c-1.232,0.455-1.963,0.548-3.065,0.954C696.892,198.336,696.231,198.781,695.228,199.108z" style="opacity: 1;"></path>
	<path class="stblack" d="M284.875,111.932c-4.001,0-4.823-1.805-4.069-3.529c0.753-1.724,3.082-3.367,5.384-3.037
		C290.794,106.022,288.163,111.932,284.875,111.932z" style="opacity: 1;"></path>
	<path class="stblack" d="M255.693,205.384c0.124,0.251,0.185,0.541,0.363,0.799l0.566,0.273c0.246,0.027,0.464,0.079,0.667,0.229
		c0.551,0.224,1.168,0.809,1.896,0.964c0.667,0.253,1.316,0.049,1.938,0.253c1.647,0.411,3.009,0.912,3.399,1.874
		c0.353,0.851-0.155,2.051-1.63,3.34c-0.761,0.507-1.674,1.053-2.928,1.402c-0.799,0.251-1.671,0.659-2.737,0.669
		c-0.437,0.025-0.886,0.005-1.341-0.03c-0.475-0.098-0.959-0.197-1.454-0.3c-0.953-0.118-2.002-0.448-3.007-0.939
		c-0.565-0.236-1.022-0.718-1.512-1.124c-0.487-0.423-0.951-0.868-1.326-1.387c-0.41-0.509-0.775-0.964-1.107-1.375
		c-0.266-0.428-0.478-0.826-0.642-1.205c-0.534-1.141-0.483-1.999-0.615-2.833c-0.163-0.812-0.299-1.572-0.35-2.656
		c-0.052-0.595,0.07-1.252,0.123-1.99c0.039-0.888-0.082-1.803,0.113-2.59c0.216-0.971,0.501-1.928,0.847-2.737
		c0.357-0.925,0.552-1.857,0.971-2.619c0.455-0.797,1.042-1.461,1.49-2.076c0.337-0.494,0.608-0.942,0.973-1.291
		c1.32-1.244,2.476-1.714,3.323-1.289c0.745,0.371,0.892,1.237,0.991,2.587c0.052,0.794,0.25,1.818,0.219,2.831
		c-0.042,0.848-0.474,1.675-0.523,2.639c-0.06,0.743,0.051,1.576,0.044,2.322c-0.027,0.396-0.135,0.789-0.256,1.193
		c-0.085,0.389-0.138,0.775-0.163,1.181c-0.038,0.627,0.361,1.018,0.43,1.358c0.068,0.443,0.097,0.757,0.179,1.011
		c0.08,0.248,0.044,0.607,0.243,0.812C255.053,204.942,255.444,205.143,255.693,205.384z" style="opacity: 1;"></path>
	<path class="stblack" d="M480.247,114.962c7.73-21.222,14.493-27.976,28.987-17.363c14.493,10.61,14.493,6.751,22.224-11.576
		s16.426-8.682,26.089-3.859c9.661,4.823,13.527-13.505,8.696-24.117c-4.832-10.61-26.089-51.126-70.534-50.162
		C483.146,21.388,465.753,83.127,480.247,114.962z" style="opacity: 1;"></path>
	<path class="stblack" d="M390.388,111.103c22.224,13.505,23.189-8.682,29.954-20.258c6.763-11.576,12.561-5.787,25.122-0.964
		c12.561,4.823,9.661-10.612,10.628-20.258c0.966-9.646,14.493-1.928,0.966-17.363c-13.527-15.435-38.86-37.622-55.18-34.729
		C385.557,20.424,371.064,84.091,390.388,111.103z" style="opacity: 1;"></path>
	<path class="stblack" d="M219.545,113.449c-8.704-2.172-7.085-15.435-0.644-13.505c2.947,0.883,4.411,4.053,4.638,7.113
		C223.81,110.682,222.341,114.148,219.545,113.449z" style="opacity: 1;"></path>
	<path class="stblack" d="M268.324,253.043c-19.097,12.004-23.341,25.42-12.024,25.42s20.512,16.948,27.585,4.943
		c7.074-12.004,2.122-15.536-2.829-27.54C276.105,243.862,268.324,253.043,268.324,253.043z" style="opacity: 1;"></path>
	<path class="stblack" d="M291.666,303.886c-23.341,11.299-27.585,12.71-17.683,21.185c9.902,8.475,19.805,24.717,24.756,9.887
		c4.951-14.83,2.122-22.597,0.708-28.246C298.032,301.063,291.666,303.886,291.666,303.886z" style="opacity: 1;"></path>
	<path class="stblack" d="M612.829,256.033c0.099-0.521,0.355-1.018,0.456-1.522c0.127-0.733,0.031-1.449,0.171-2.113
		c0.144-0.772,0.539-1.508,0.7-2.189c0.182-0.662,0.129-1.247,0.328-1.778c0.503-1.385,1.112-2.329,1.892-2.454
		c0.703-0.116,1.525,0.494,2.271,1.731c0.326,0.588,0.579,1.321,0.815,2.164c0.161,0.544,0.434,1.139,0.523,1.776
		c0.08,0.534,0.071,1.097,0.089,1.682c0.023,0.558,0.163,1.151,0.129,1.749c-0.043,0.654-0.174,1.323-0.294,2.002
		c-0.117,0.691-0.1,1.254-0.234,1.704c-0.191,0.667-0.458,1.119-0.649,1.608c-0.19,0.462-0.275,0.971-0.495,1.655
		c-0.133,0.362-0.377,0.75-0.533,1.254c-0.177,0.603-0.325,1.205-0.547,1.763c-0.275,0.681-0.718,1.267-1.031,1.862
		c-0.379,0.657-0.679,1.306-1.075,1.852c-0.445,0.566-0.955,1.026-1.388,1.444c-0.344,0.33-0.584,0.669-0.902,0.91
		c-1.163,0.844-2.135,1.072-2.722,0.654c-0.521-0.371-0.516-1.058-0.408-2.113c0.047-0.632,0.004-1.458,0.191-2.245
		c0.149-0.671,0.554-1.289,0.77-2.066c0.192-0.588,0.164-1.303,0.376-1.936c0.207-0.671,0.637-1.299,0.87-2.024
		c0.144-0.551,0.063-1.043,0.126-1.414c0.166-0.915,0.42-1.382,0.527-2.209C612.859,257.337,612.714,256.766,612.829,256.033z" style="opacity: 1;"></path>
	<path class="stblack" d="M590.017,268.011c-0.027-0.32,0.177-0.654,0.185-0.964c0.012-0.448-0.153-0.861-0.076-1.274
		c0.09-0.477,0.434-0.947,0.597-1.358c0.159-0.398,0.138-0.743,0.352-1.06c0.56-0.829,1.288-1.35,2.063-1.417
		c0.716-0.059,1.46,0.273,2.117,0.89c0.312,0.293,0.498,0.662,0.758,1.07c0.169,0.266,0.43,0.546,0.568,0.853
		c0.117,0.258,0.115,0.539,0.206,0.824c0.086,0.271,0.267,0.546,0.326,0.836c0.065,0.322,0.009,0.664,0.037,1.003
		c0.028,0.349,0.138,0.612,0.124,0.846c-0.018,0.344-0.176,0.607-0.225,0.871c-0.046,0.253,0.018,0.507,0.011,0.866
		c-0.004,0.192-0.102,0.423-0.08,0.686c0.026,0.315,0.145,0.615,0.144,0.917c0,0.369-0.126,0.733-0.163,1.077
		c-0.042,0.384,0,0.743-0.085,1.087c-0.09,0.364-0.309,0.713-0.443,1.023c-0.105,0.243-0.117,0.457-0.248,0.662
		c-0.466,0.728-1.085,1.183-1.812,1.242c-0.638,0.054-1.041-0.224-1.585-0.718c-0.319-0.293-0.825-0.647-1.085-1.087
		c-0.218-0.371-0.2-0.807-0.361-1.264c-0.126-0.354-0.443-0.711-0.528-1.107c-0.089-0.413,0.058-0.868,0.021-1.318
		c-0.049-0.337-0.31-0.585-0.358-0.807c-0.118-0.551-0.02-0.868-0.113-1.36C590.312,268.763,590.055,268.461,590.017,268.011z" style="opacity: 1;"></path>
	<path class="stblack" d="M567.789,280.123c0.016-0.423,0.223-0.841,0.256-1.249c0.038-0.59-0.127-1.149-0.049-1.685
		c0.079-0.627,0.411-1.247,0.537-1.8c0.137-0.541,0.065-1.001,0.243-1.441c0.452-1.144,1.06-1.943,1.829-2.105
		c0.698-0.145,1.516,0.271,2.287,1.181c0.35,0.433,0.611,0.984,0.904,1.618c0.193,0.411,0.493,0.848,0.639,1.335
		c0.124,0.408,0.15,0.846,0.233,1.296c0.083,0.433,0.272,0.876,0.314,1.343c0.042,0.512-0.02,1.043-0.036,1.581
		c-0.014,0.548,0.075,0.981,0.02,1.343c-0.078,0.539-0.271,0.917-0.371,1.316c-0.101,0.381-0.091,0.785-0.18,1.338
		c-0.055,0.298-0.213,0.627-0.264,1.038c-0.053,0.487-0.049,0.976-0.143,1.436c-0.116,0.563-0.387,1.075-0.546,1.579
		c-0.195,0.561-0.308,1.109-0.538,1.589c-0.259,0.502-0.617,0.93-0.898,1.323c-0.223,0.307-0.346,0.61-0.569,0.846
		c-0.819,0.836-1.637,1.168-2.319,0.922c-0.602-0.214-0.817-0.762-1.053-1.626c-0.15-0.512-0.443-1.166-0.491-1.822
		c-0.048-0.556,0.159-1.104,0.17-1.749c0.022-0.494-0.172-1.055-0.122-1.584c0.043-0.561,0.318-1.107,0.394-1.707
		c0.031-0.453-0.155-0.831-0.16-1.134c-0.007-0.74,0.155-1.136,0.131-1.8C568.004,281.149,567.78,280.711,567.789,280.123z" style="opacity: 1;"></path>
	<path class="stblack" d="M649.899,202.831l-0.684,0.081c-0.283,0.103-0.469,0.357-0.76,0.391c-0.338,0.042-0.78-0.145-1.109-0.187
		c-0.319-0.042-0.523,0.064-0.817-0.047c-0.761-0.29-1.408-0.807-1.79-1.485c-0.352-0.625-0.473-1.375-0.376-2.12
		c0.046-0.352,0.192-0.612,0.334-0.949l0.281-0.726l0.424-0.393l0.378-0.504l0.61-0.288l0.471-0.327l0.643-0.02
		c0.177-0.025,0.307-0.145,0.535-0.231l0.464-0.101l0.507-0.364c0.229-0.093,0.512-0.074,0.743-0.128
		c0.259-0.061,0.463-0.189,0.716-0.202c0.266-0.012,0.58,0.096,0.831,0.138l0.522,0.052c0.659,0.234,1.214,0.671,1.572,1.306
		c0.313,0.556,0.319,0.989,0.249,1.599c-0.041,0.362-0.039,0.905-0.201,1.249c-0.134,0.288-0.415,0.384-0.628,0.644l-0.457,0.753
		c-0.22,0.187-0.568,0.17-0.831,0.32l-0.346,0.524c-0.291,0.246-0.532,0.239-0.798,0.448
		C650.239,202.376,650.163,202.684,649.899,202.831z" style="opacity: 1;"></path>
	<path class="stblack" d="M112.73,196.098c-0.078-0.826-0.057-1.707-0.101-2.538c-0.067-1.208-0.179-2.383-0.117-3.507
		c0.071-1.311,0.345-2.531,0.608-3.62c0.245-1.055,0.499-2.012,0.874-2.784c0.988-2.024,2.12-2.831,2.391-2.632
		c0.306,0.202-0.04,1.208-0.344,2.853c-0.147,0.777-0.317,1.702-0.386,2.769c-0.05,0.689-0.006,1.441-0.001,2.233
		c0.015,0.669-0.016,1.367,0.037,2.105c0.042,0.703,0.159,1.434,0.227,2.189c0.068,0.851,0.139,1.727,0.211,2.622
		c0.088,0.942,0.175,1.727,0.157,2.41c-0.026,1.013-0.192,1.781-0.398,2.573c-0.196,0.738-0.443,1.613-1.095,2.602
		c-0.361,0.531-0.856,1.09-1.577,1.66c-0.84,0.686-1.944,1.19-3.093,1.24c-1.42,0.054-2.664-0.573-3.538-1.294
		c-1-0.819-1.67-1.805-2.067-2.821c-0.414-1.109-0.433-2.11-0.418-2.986c0.017-0.686,0.054-1.294,0.163-1.825
		c0.419-1.881,0.959-2.833,1.287-2.789c0.31,0.044,0.323,0.898,0.4,2.302c0.055,0.821,0.209,1.832,0.467,2.853
		c0.212,0.871,0.485,1.724,1.151,2.459c0.507,0.556,1.212,0.898,1.819,1.011c0.625,0.13,1.323,0.081,2.002-0.453
		c0.49-0.406,0.714-0.927,0.912-1.316c0.46-0.962,0.613-1.628,0.66-2.769C112.973,198.016,112.837,197.249,112.73,196.098z" style="opacity: 1;"></path>
	<path class="stblack" d="M502.905,245.399c-0.076-0.829-0.057-1.707-0.1-2.538c-0.068-1.208-0.18-2.383-0.118-3.507
		c0.071-1.311,0.346-2.531,0.608-3.62c0.245-1.055,0.5-2.012,0.873-2.784c0.988-2.024,2.12-2.831,2.391-2.632
		c0.307,0.202-0.039,1.208-0.342,2.853c-0.148,0.777-0.317,1.702-0.387,2.769c-0.05,0.689-0.006,1.441,0,2.233
		c0.015,0.669-0.016,1.367,0.037,2.105c0.042,0.703,0.159,1.434,0.227,2.189c0.069,0.851,0.139,1.727,0.212,2.622
		c0.087,0.942,0.174,1.727,0.156,2.408c-0.027,1.016-0.192,1.783-0.398,2.575c-0.196,0.738-0.443,1.613-1.095,2.602
		c-0.361,0.531-0.857,1.09-1.578,1.66c-0.84,0.686-1.944,1.19-3.093,1.24c-1.42,0.054-2.664-0.573-3.539-1.296
		c-0.999-0.817-1.67-1.803-2.067-2.818c-0.414-1.109-0.432-2.11-0.416-2.986c0.017-0.686,0.054-1.294,0.163-1.825
		c0.419-1.881,0.959-2.833,1.287-2.789c0.309,0.044,0.323,0.898,0.4,2.302c0.054,0.821,0.209,1.832,0.467,2.853
		c0.213,0.871,0.485,1.724,1.152,2.459c0.506,0.556,1.211,0.898,1.818,1.011c0.626,0.13,1.324,0.081,2.002-0.453
		c0.491-0.406,0.714-0.927,0.913-1.316c0.461-0.962,0.612-1.631,0.66-2.772C503.149,247.317,503.013,246.55,502.905,245.399z" style="opacity: 1;"></path>
	<path class="stblack" d="M507.115,355.03c-0.076-0.826-0.055-1.704-0.1-2.536c-0.068-1.208-0.18-2.383-0.118-3.51
		c0.071-1.308,0.346-2.528,0.608-3.62c0.245-1.053,0.5-2.009,0.873-2.782c0.989-2.024,2.12-2.831,2.392-2.634
		c0.305,0.202-0.041,1.208-0.344,2.853c-0.148,0.78-0.317,1.702-0.386,2.769c-0.052,0.689-0.006,1.441-0.001,2.233
		c0.015,0.669-0.016,1.37,0.037,2.108c0.042,0.701,0.159,1.434,0.227,2.189c0.069,0.851,0.139,1.724,0.212,2.619
		c0.087,0.942,0.174,1.727,0.156,2.41c-0.026,1.013-0.192,1.781-0.398,2.573c-0.196,0.738-0.443,1.616-1.095,2.604
		c-0.361,0.531-0.857,1.09-1.578,1.66c-0.84,0.686-1.944,1.19-3.093,1.24c-1.42,0.054-2.664-0.573-3.539-1.296
		c-0.999-0.817-1.67-1.803-2.067-2.818c-0.414-1.109-0.432-2.11-0.416-2.986c0.017-0.686,0.054-1.296,0.163-1.825
		c0.419-1.881,0.96-2.836,1.287-2.791c0.309,0.047,0.323,0.9,0.4,2.304c0.054,0.821,0.209,1.832,0.467,2.85
		c0.213,0.873,0.485,1.724,1.152,2.462c0.506,0.556,1.211,0.898,1.818,1.011c0.626,0.128,1.324,0.079,2.001-0.453
		c0.491-0.408,0.714-0.927,0.913-1.316c0.461-0.962,0.612-1.631,0.66-2.772C507.359,356.95,507.223,356.183,507.115,355.03z" style="opacity: 1;"></path>
	<path class="stblack" d="M179.903,256.048c-0.078-0.826-0.057-1.704-0.101-2.536c-0.067-1.208-0.179-2.383-0.117-3.51
		c0.071-1.308,0.345-2.528,0.608-3.62c0.245-1.053,0.499-2.009,0.874-2.782c0.988-2.024,2.12-2.831,2.391-2.634
		c0.306,0.202-0.04,1.208-0.344,2.853c-0.147,0.78-0.317,1.702-0.386,2.769c-0.051,0.689-0.006,1.441-0.001,2.233
		c0.015,0.669-0.016,1.37,0.037,2.108c0.042,0.701,0.159,1.434,0.227,2.189c0.069,0.851,0.139,1.724,0.211,2.619
		c0.087,0.942,0.175,1.727,0.157,2.41c-0.026,1.013-0.192,1.781-0.398,2.573c-0.196,0.738-0.443,1.616-1.095,2.604
		c-0.361,0.531-0.856,1.09-1.577,1.66c-0.84,0.686-1.944,1.19-3.093,1.24c-1.42,0.054-2.664-0.573-3.538-1.296
		c-1-0.817-1.67-1.803-2.067-2.818c-0.414-1.109-0.433-2.11-0.418-2.986c0.017-0.686,0.054-1.296,0.163-1.825
		c0.419-1.881,0.959-2.836,1.286-2.791c0.31,0.047,0.323,0.9,0.4,2.304c0.055,0.821,0.209,1.832,0.467,2.85
		c0.212,0.873,0.485,1.724,1.151,2.462c0.507,0.556,1.212,0.898,1.819,1.011c0.625,0.128,1.323,0.079,2.002-0.453
		c0.49-0.408,0.714-0.927,0.912-1.316c0.46-0.962,0.612-1.631,0.66-2.772C180.147,257.969,180.011,257.202,179.903,256.048z" style="opacity: 1;"></path>
	<path class="stblack" d="M216.463,158.301c-0.077-0.829-0.056-1.707-0.1-2.538c-0.067-1.208-0.179-2.383-0.118-3.507
		c0.071-1.311,0.345-2.531,0.608-3.62c0.245-1.055,0.499-2.012,0.873-2.784c0.988-2.024,2.12-2.831,2.391-2.634
		c0.306,0.204-0.039,1.208-0.343,2.853c-0.147,0.78-0.317,1.704-0.386,2.769c-0.051,0.691-0.006,1.444,0,2.236
		c0.015,0.666-0.016,1.367,0.037,2.105c0.041,0.703,0.159,1.434,0.227,2.189c0.068,0.851,0.139,1.727,0.211,2.622
		c0.087,0.939,0.174,1.727,0.157,2.408c-0.026,1.016-0.192,1.783-0.398,2.575c-0.196,0.735-0.443,1.613-1.095,2.602
		c-0.361,0.531-0.857,1.09-1.577,1.66c-0.84,0.686-1.944,1.19-3.093,1.24c-1.42,0.054-2.664-0.573-3.539-1.296
		c-1-0.817-1.67-1.803-2.067-2.818c-0.414-1.109-0.432-2.11-0.417-2.986c0.017-0.686,0.054-1.294,0.163-1.825
		c0.419-1.881,0.96-2.833,1.287-2.789c0.31,0.044,0.323,0.898,0.4,2.302c0.055,0.821,0.209,1.83,0.467,2.85
		c0.212,0.873,0.485,1.724,1.151,2.462c0.506,0.556,1.211,0.898,1.818,1.011c0.626,0.13,1.324,0.081,2.002-0.453
		c0.491-0.406,0.714-0.927,0.912-1.316c0.461-0.962,0.613-1.631,0.661-2.772C216.706,160.22,216.572,159.452,216.463,158.301z" style="opacity: 1;"></path>
	<path class="stblack" d="M52.053,410.797c-3.707-12.336,3.707-51.82,7.415-78.962c3.707-27.145,13.594-59.223,22.244-59.223
		c8.651,0,8.651,11.104,8.651,18.507c0,7.403-8.651,74.028-4.943,95.002c3.707,20.974-3.707,25.91-3.707,25.91L52.053,410.797z" style="opacity: 1;"></path>
	<path class="stblack" d="M117.74,406.53c-2.775-11.79,2.775-49.525,5.551-75.467c2.775-25.942,10.176-56.601,16.651-56.601
		c6.475,0,6.475,10.612,6.475,17.686c0,7.076-6.475,70.752-3.7,90.799c2.775,20.047-2.775,24.764-2.775,24.764L117.74,406.53z" style="opacity: 1;"></path>
</g>
</svg>
